<svg width="244" height="52" viewBox="0 0 244 52" fill="none" xmlns="http://www.w3.org/2000/svg">
<path d="M0 0.312012H30.6V7.51201H8.352V22.2H29.736V29.184H8.352V51H0V0.312012Z" fill="black"/>
<path d="M36.0534 18.024H43.9734V51H36.0534V18.024ZM35.6934 2.18401H44.3334V12.264H35.6934V2.18401Z" fill="black"/>
<path d="M56.1887 24.504H48.9887V18.024H56.1887V9.24001L64.1087 7.51201V18.024H72.6047V24.504H64.1087V51H56.1887V24.504Z" fill="black"/>
<path d="M97.9037 17.232C101.6 17.232 104.48 18.264 106.544 20.328C108.656 22.344 109.712 25.392 109.712 29.472V51H101.864V30.984C101.864 28.584 101.24 26.784 99.9917 25.584C98.7437 24.384 97.0157 23.784 94.8077 23.784C92.6957 23.784 90.8477 24.336 89.2637 25.44C87.6797 26.544 86.5037 28.056 85.7357 29.976V51H77.8157V18.024H85.7357V23.208C87.0797 21.288 88.7837 19.824 90.8477 18.816C92.9117 17.76 95.2637 17.232 97.9037 17.232Z" fill="black"/>
<path d="M146.784 31.992C146.784 33.384 146.616 35.112 146.28 37.176H123.096C123.96 42.6 127.512 45.312 133.752 45.312C137.208 45.312 140.472 44.448 143.544 42.72V49.344C139.992 50.976 136.44 51.792 132.888 51.792C129.336 51.792 126.216 51.072 123.528 49.632C120.84 48.192 118.752 46.176 117.264 43.584C115.824 40.944 115.104 37.896 115.104 34.44C115.104 31.032 115.776 28.032 117.12 25.44C118.512 22.8 120.456 20.784 122.952 19.392C125.496 17.952 128.424 17.232 131.736 17.232C136.344 17.232 139.992 18.576 142.68 21.264C145.416 23.904 146.784 27.48 146.784 31.992ZM131.88 23.712C129.336 23.712 127.296 24.432 125.76 25.872C124.272 27.264 123.36 29.304 123.024 31.992H139.944C139.944 29.352 139.248 27.312 137.856 25.872C136.464 24.432 134.472 23.712 131.88 23.712Z" fill="black"/>
<path d="M161.848 45.6C163.528 45.6 164.848 45.264 165.808 44.592C166.768 43.872 167.248 42.888 167.248 41.64C167.248 40.536 166.768 39.648 165.808 38.976C164.896 38.256 163.072 37.416 160.336 36.456C156.784 35.208 154.216 33.84 152.632 32.352C151.048 30.864 150.256 29.016 150.256 26.808C150.256 23.976 151.456 21.672 153.856 19.896C156.256 18.12 159.4 17.232 163.288 17.232C167.128 17.232 170.92 18.168 174.664 20.04V26.664C172.936 25.656 171.088 24.864 169.12 24.288C167.152 23.664 165.232 23.352 163.36 23.352C161.776 23.352 160.528 23.64 159.616 24.216C158.752 24.744 158.32 25.488 158.32 26.448C158.32 27.312 158.704 28.032 159.472 28.608C160.288 29.184 161.848 29.856 164.152 30.624C167.032 31.632 169.264 32.64 170.848 33.648C172.48 34.608 173.632 35.688 174.304 36.888C174.976 38.088 175.312 39.528 175.312 41.208C175.312 44.568 174.136 47.184 171.784 49.056C169.432 50.88 166.144 51.792 161.92 51.792C158.32 51.792 154.528 50.688 150.544 48.48V41.928C152.32 43.032 154.192 43.92 156.16 44.592C158.128 45.264 160.024 45.6 161.848 45.6Z" fill="black"/>
<path d="M190.465 45.6C192.145 45.6 193.465 45.264 194.425 44.592C195.385 43.872 195.865 42.888 195.865 41.64C195.865 40.536 195.385 39.648 194.425 38.976C193.513 38.256 191.689 37.416 188.953 36.456C185.401 35.208 182.833 33.84 181.249 32.352C179.665 30.864 178.873 29.016 178.873 26.808C178.873 23.976 180.073 21.672 182.473 19.896C184.873 18.12 188.017 17.232 191.905 17.232C195.745 17.232 199.537 18.168 203.281 20.04V26.664C201.553 25.656 199.705 24.864 197.737 24.288C195.769 23.664 193.849 23.352 191.977 23.352C190.393 23.352 189.145 23.64 188.233 24.216C187.369 24.744 186.937 25.488 186.937 26.448C186.937 27.312 187.321 28.032 188.089 28.608C188.905 29.184 190.465 29.856 192.769 30.624C195.649 31.632 197.881 32.64 199.465 33.648C201.097 34.608 202.249 35.688 202.921 36.888C203.593 38.088 203.929 39.528 203.929 41.208C203.929 44.568 202.753 47.184 200.401 49.056C198.049 50.88 194.761 51.792 190.537 51.792C186.937 51.792 183.145 50.688 179.161 48.48V41.928C180.937 43.032 182.809 43.92 184.777 44.592C186.745 45.264 188.641 45.6 190.465 45.6Z" fill="black"/>
<path d="M225.778 51.792C222.178 51.792 219.01 51.072 216.274 49.632C213.538 48.144 211.426 46.104 209.938 43.512C208.45 40.92 207.706 37.92 207.706 34.512C207.706 31.104 208.45 28.104 209.938 25.512C211.426 22.92 213.538 20.904 216.274 19.464C219.01 17.976 222.178 17.232 225.778 17.232C229.378 17.232 232.522 17.976 235.21 19.464C237.946 20.904 240.058 22.92 241.546 25.512C243.034 28.104 243.778 31.104 243.778 34.512C243.778 37.92 243.034 40.92 241.546 43.512C240.058 46.104 237.946 48.144 235.21 49.632C232.522 51.072 229.378 51.792 225.778 51.792ZM225.778 45.312C228.658 45.312 231.034 44.328 232.906 42.36C234.778 40.392 235.714 37.776 235.714 34.512C235.714 31.248 234.778 28.632 232.906 26.664C231.034 24.696 228.658 23.712 225.778 23.712C222.898 23.712 220.522 24.696 218.65 26.664C216.778 28.632 215.842 31.248 215.842 34.512C215.842 37.776 216.778 40.392 218.65 42.36C220.522 44.328 222.898 45.312 225.778 45.312Z" fill="black"/>
<path d="M78.248 0H242.248V7H78.248V0Z" fill="black"/>
</svg>
